<?xml version="1.0" encoding="UTF-8"?>
<svg xmlns="http://www.w3.org/2000/svg" xmlns:xlink="http://www.w3.org/1999/xlink" width="32pt" height="40pt" viewBox="0 0 32 40" version="1.1">
<g id="surface1">
<path style=" stroke:none;fill-rule:nonzero;fill:rgb(0%,0%,0%);fill-opacity:1;" d="M 15.238281 5.390625 L 2.441406 14.992188 C 2.203125 15.167969 2.058594 15.464844 2.058594 15.761719 L 2.058594 33.039062 C 2.058594 33.542969 2.515625 34 3.019531 34 L 11.660156 34 C 12.164062 34 12.621094 33.542969 12.621094 33.039062 L 12.621094 25.039062 L 19.019531 25.039062 L 19.019531 33.039062 C 19.019531 33.542969 19.476562 34 19.980469 34 L 28.621094 34 C 29.121094 34 29.578125 33.542969 29.578125 33.039062 L 29.578125 15.761719 C 29.578125 15.464844 29.4375 15.167969 29.199219 14.992188 L 16.398438 5.390625 C 15.980469 5.125 15.617188 5.148438 15.238281 5.390625 Z M 15.820312 7.359375 L 27.660156 16.242188 L 27.660156 32.078125 L 20.941406 32.078125 L 20.941406 24.082031 C 20.941406 23.578125 20.484375 23.121094 19.980469 23.121094 L 11.660156 23.121094 C 11.15625 23.121094 10.699219 23.578125 10.699219 24.082031 L 10.699219 32.078125 L 3.980469 32.078125 L 3.980469 16.242188 Z M 15.820312 7.359375 "/>
</g>
</svg>
