<?xml version="1.0" encoding="UTF-8"?>
<svg xmlns="http://www.w3.org/2000/svg" xmlns:xlink="http://www.w3.org/1999/xlink" width="30pt" height="31pt" viewBox="0 0 30 31" version="1.1">
<g id="surface1">
<path style=" stroke:none;fill-rule:nonzero;fill:rgb(0%,0%,0%);fill-opacity:1;" d="M 15.039062 15.398438 C 19.089844 15.398438 22.3125 11.949219 22.3125 7.597656 C 22.3125 3.394531 19.050781 0 15.039062 0 C 11.039062 0 7.75 3.421875 7.777344 7.625 C 7.804688 11.960938 10.984375 15.398438 15.039062 15.398438 Z M 15.039062 13.6875 C 12.035156 13.6875 9.613281 11.046875 9.613281 7.625 C 9.585938 4.351562 12.046875 1.710938 15.039062 1.710938 C 18.03125 1.710938 20.464844 4.308594 20.464844 7.597656 C 20.464844 11.019531 18.058594 13.6875 15.039062 13.6875 Z M 3.535156 30.992188 L 26.488281 30.992188 C 28.894531 30.992188 30.023438 30.238281 30.023438 28.582031 C 30.023438 24.136719 24.296875 17.835938 15.011719 17.835938 C 5.738281 17.835938 0 24.136719 0 28.582031 C 0 30.238281 1.140625 30.992188 3.535156 30.992188 Z M 3.128906 29.28125 C 2.160156 29.28125 1.847656 29.058594 1.847656 28.421875 C 1.847656 24.960938 6.664062 19.546875 15.011719 19.546875 C 23.359375 19.546875 28.1875 24.960938 28.1875 28.421875 C 28.1875 29.058594 27.875 29.28125 26.910156 29.28125 Z M 3.128906 29.28125 "/>
</g>
</svg>
